<svg width="24" height="24" viewBox="0 0 24 24" fill="none" xmlns="http://www.w3.org/2000/svg">
<path d="M12 22.75C6.07 22.75 1.25 17.93 1.25 12C1.25 6.07 6.07 1.25 12 1.25C17.93 1.25 22.75 6.07 22.75 12C22.75 17.93 17.93 22.75 12 22.75ZM12 2.75C6.9 2.75 2.75 6.9 2.75 12C2.75 17.1 6.9 21.25 12 21.25C17.1 21.25 21.25 17.1 21.25 12C21.25 6.9 17.1 2.75 12 2.75Z" fill="#001113"/>
<path d="M9.16986 15.58C8.97986 15.58 8.78986 15.51 8.63986 15.36C8.34986 15.07 8.34986 14.59 8.63986 14.3L14.2999 8.63999C14.5899 8.34999 15.0699 8.34999 15.3599 8.63999C15.6499 8.92999 15.6499 9.40998 15.3599 9.69998L9.69986 15.36C9.55986 15.51 9.35986 15.58 9.16986 15.58Z" fill="#001113"/>
<path d="M14.8299 15.58C14.6399 15.58 14.4499 15.51 14.2999 15.36L8.63986 9.69998C8.34986 9.40998 8.34986 8.92999 8.63986 8.63999C8.92986 8.34999 9.40986 8.34999 9.69986 8.63999L15.3599 14.3C15.6499 14.59 15.6499 15.07 15.3599 15.36C15.2099 15.51 15.0199 15.58 14.8299 15.58Z" fill="#001113"/>
</svg>
