<svg width="24" height="24" viewBox="0 0 24 24" fill="none" xmlns="http://www.w3.org/2000/svg">
<path d="M15 22.75H9C3.57 22.75 1.25 20.43 1.25 15V9C1.25 3.57 3.57 1.25 9 1.25H11C11.41 1.25 11.75 1.59 11.75 2C11.75 2.41 11.41 2.75 11 2.75H9C4.39 2.75 2.75 4.39 2.75 9V15C2.75 19.61 4.39 21.25 9 21.25H15C19.61 21.25 21.25 19.61 21.25 15V13C21.25 12.59 21.59 12.25 22 12.25C22.41 12.25 22.75 12.59 22.75 13V15C22.75 20.43 20.43 22.75 15 22.75Z" fill="#001113"/>
<path d="M8.49935 17.69C7.88935 17.69 7.32935 17.47 6.91935 17.07C6.42935 16.58 6.21935 15.87 6.32935 15.12L6.75935 12.11C6.83935 11.53 7.21935 10.78 7.62935 10.37L15.5093 2.49C17.4993 0.499998 19.5193 0.499998 21.5093 2.49C22.5993 3.58 23.0893 4.69 22.9893 5.8C22.8993 6.7 22.4193 7.58 21.5093 8.48L13.6293 16.36C13.2193 16.77 12.4693 17.15 11.8893 17.23L8.87935 17.66C8.74935 17.69 8.61935 17.69 8.49935 17.69ZM16.5693 3.55L8.68935 11.43C8.49935 11.62 8.27935 12.06 8.23935 12.32L7.80935 15.33C7.76935 15.62 7.82935 15.86 7.97935 16.01C8.12935 16.16 8.36935 16.22 8.65935 16.18L11.6693 15.75C11.9293 15.71 12.3793 15.49 12.5593 15.3L20.4393 7.42C21.0893 6.77 21.4293 6.19 21.4793 5.65C21.5393 5 21.1993 4.31 20.4393 3.54C18.8393 1.94 17.7393 2.39 16.5693 3.55Z" fill="#001113"/>
<path d="M19.8496 9.83C19.7796 9.83 19.7096 9.82 19.6496 9.8C17.0196 9.06 14.9296 6.97 14.1896 4.34C14.0796 3.94 14.3096 3.53 14.7096 3.41C15.1096 3.3 15.5196 3.53 15.6296 3.93C16.2296 6.06 17.9196 7.75 20.0496 8.35C20.4496 8.46 20.6796 8.88 20.5696 9.28C20.4796 9.62 20.1796 9.83 19.8496 9.83Z" fill="#001113"/>
</svg>
