<svg width="24" height="24" viewBox="0 0 24 24" fill="none" xmlns="http://www.w3.org/2000/svg">
<path d="M12.0199 20.53C9.68987 20.53 7.35987 20.16 5.14987 19.42C4.30987 19.13 3.66987 18.54 3.38987 17.77C3.09987 17 3.19987 16.15 3.65987 15.39L4.80987 13.48C5.04987 13.08 5.26987 12.28 5.26987 11.81V8.92C5.26987 5.2 8.29987 2.17 12.0199 2.17C15.7399 2.17 18.7699 5.2 18.7699 8.92V11.81C18.7699 12.27 18.9899 13.08 19.2299 13.49L20.3699 15.39C20.7999 16.11 20.8799 16.98 20.5899 17.77C20.2999 18.56 19.6699 19.16 18.8799 19.42C16.6799 20.16 14.3499 20.53 12.0199 20.53ZM12.0199 3.67C9.12987 3.67 6.76987 6.02 6.76987 8.92V11.81C6.76987 12.54 6.46987 13.62 6.09987 14.25L4.94987 16.16C4.72987 16.53 4.66987 16.92 4.79987 17.25C4.91987 17.59 5.21987 17.85 5.62987 17.99C9.80987 19.39 14.2399 19.39 18.4199 17.99C18.7799 17.87 19.0599 17.6 19.1899 17.24C19.3199 16.88 19.2899 16.49 19.0899 16.16L17.9399 14.25C17.5599 13.6 17.2699 12.53 17.2699 11.8V8.92C17.2699 6.02 14.9199 3.67 12.0199 3.67Z" fill="#001113"/>
<path d="M13.8806 3.93999C13.8106 3.93999 13.7406 3.92999 13.6706 3.90999C13.3806 3.82999 13.1006 3.76999 12.8306 3.72999C11.9806 3.61999 11.1606 3.67999 10.3906 3.90999C10.1106 3.99999 9.8106 3.90999 9.6206 3.69999C9.4306 3.48999 9.3706 3.18999 9.4806 2.91999C9.8906 1.86999 10.8906 1.17999 12.0306 1.17999C13.1706 1.17999 14.1706 1.85999 14.5806 2.91999C14.6806 3.18999 14.6306 3.48999 14.4406 3.69999C14.2906 3.85999 14.0806 3.93999 13.8806 3.93999Z" fill="#001113"/>
<path d="M12.0195 22.81C11.0295 22.81 10.0695 22.41 9.36953 21.71C8.66953 21.01 8.26953 20.05 8.26953 19.06H9.76953C9.76953 19.65 10.0095 20.23 10.4295 20.65C10.8495 21.07 11.4295 21.31 12.0195 21.31C13.2595 21.31 14.2695 20.3 14.2695 19.06H15.7695C15.7695 21.13 14.0895 22.81 12.0195 22.81Z" fill="#001113"/>
</svg>
