<svg width="26" height="27" viewBox="0 0 26 27" fill="none" xmlns="http://www.w3.org/2000/svg">
<path d="M12.4498 24.2279C6.33319 24.2279 1.35327 19.1038 1.35327 12.8101C1.35327 6.51646 6.33319 1.39241 12.4498 1.39241C18.5665 1.39241 23.5464 6.51646 23.5464 12.8101C23.5464 19.1038 18.5665 24.2279 12.4498 24.2279ZM12.4498 3.0633C7.22091 3.0633 2.97716 7.44102 2.97716 12.8101C2.97716 18.1792 7.22091 22.557 12.4498 22.557C17.6787 22.557 21.9225 18.1792 21.9225 12.8101C21.9225 7.44102 17.6787 3.0633 12.4498 3.0633Z" fill="#001113"/>
<path d="M23.8169 25.3418C23.6113 25.3418 23.4056 25.2638 23.2432 25.0967L21.078 22.8689C20.764 22.5458 20.764 22.0111 21.078 21.6881C21.3919 21.3651 21.9116 21.3651 22.2255 21.6881L24.3907 23.9159C24.7047 24.239 24.7047 24.7737 24.3907 25.0967C24.2283 25.2638 24.0226 25.3418 23.8169 25.3418Z" fill="#001113"/>
</svg>
