<svg width="24" height="24" viewBox="0 0 24 24" fill="none" xmlns="http://www.w3.org/2000/svg">
<path d="M2.00002 22.75C1.80002 22.75 1.60999 22.67 1.46999 22.53C1.27999 22.34 1.20004 22.06 1.27004 21.8L2.53005 17.09C1.69005 15.53 1.25002 13.77 1.25002 11.99C1.25002 6.05999 6.07002 1.23999 12 1.23999C17.93 1.23999 22.75 6.05999 22.75 11.99C22.75 17.92 17.93 22.74 12 22.74C10.19 22.74 8.42004 22.29 6.84004 21.43L2.20003 22.72C2.13003 22.74 2.07002 22.75 2.00002 22.75ZM6.94002 19.88C7.07002 19.88 7.20002 19.92 7.32002 19.98C8.73002 20.81 10.35 21.25 12 21.25C17.1 21.25 21.25 17.1 21.25 12C21.25 6.9 17.1 2.75 12 2.75C6.90002 2.75 2.75002 6.9 2.75002 12C2.75002 13.63 3.18001 15.22 3.99001 16.62C4.09001 16.79 4.12002 17 4.07002 17.19L3.07002 20.93L6.75002 19.91C6.81002 19.89 6.88002 19.88 6.94002 19.88Z" fill="#001113"/>
<path d="M14.74 17.76C14.12 17.76 13.48 17.62 12.81 17.33C12.18 17.06 11.55 16.7 10.94 16.25C10.34 15.81 9.75002 15.31 9.21002 14.77C8.67002 14.22 8.16998 13.64 7.72998 13.04C7.27998 12.41 6.91997 11.79 6.65997 11.18C6.37997 10.52 6.23999 9.87001 6.23999 9.25001C6.23999 8.81001 6.31997 8.39001 6.46997 8.00001C6.62997 7.59001 6.88998 7.22001 7.22998 6.90001C7.86998 6.27001 8.79002 6.04003 9.52002 6.39003C9.77002 6.50003 9.98001 6.68002 10.14 6.92002L11.3 8.55C11.42 8.71 11.51 8.88 11.58 9.05C11.66 9.25 11.71 9.45003 11.71 9.64003C11.71 9.90003 11.64 10.16 11.5 10.39C11.41 10.54 11.28 10.72 11.11 10.89L10.98 11.03C11.04 11.11 11.11 11.21 11.22 11.33C11.43 11.57 11.66 11.83 11.91 12.08C12.16 12.32 12.41 12.56 12.66 12.77C12.78 12.87 12.88 12.95 12.96 13L13.1 12.86C13.28 12.68 13.46 12.54 13.64 12.45C13.97 12.24 14.48 12.19 14.93 12.38C15.09 12.44 15.25 12.53 15.42 12.65L17.09 13.83C17.32 13.99 17.5 14.21 17.62 14.46C17.72 14.71 17.76 14.93 17.76 15.16C17.76 15.46 17.69 15.75 17.56 16.03C17.43 16.29 17.28 16.52 17.1 16.73C16.78 17.08 16.41 17.34 16.01 17.51C15.61 17.68 15.18 17.76 14.74 17.76ZM8.78998 7.74C8.72998 7.74 8.53003 7.74 8.28003 7.99C8.09003 8.17 7.96 8.36002 7.87 8.57002C7.78 8.78002 7.73999 9.02002 7.73999 9.26002C7.73999 9.68002 7.83998 10.13 8.03998 10.61C8.24998 11.11 8.56 11.64 8.94 12.17C9.33 12.7 9.77001 13.23 10.26 13.72C10.75 14.2 11.27 14.65 11.81 15.05C12.33 15.43 12.86 15.73 13.39 15.96C14.15 16.29 14.85 16.37 15.42 16.13C15.62 16.05 15.8 15.91 15.98 15.73C16.07 15.63 16.14 15.53 16.2 15.4C16.23 15.33 16.25 15.25 16.25 15.18C16.25 15.16 16.25 15.13 16.22 15.07L14.55 13.91C14.48 13.86 14.41 13.82 14.35 13.8C14.31 13.82 14.25 13.85 14.14 13.96L13.76 14.34C13.47 14.63 13.01 14.71 12.64 14.58L12.46 14.5C12.23 14.38 11.97 14.2 11.68 13.95C11.4 13.71 11.13 13.46 10.84 13.18C10.56 12.89 10.31 12.62 10.07 12.34C9.81001 12.03 9.63001 11.78 9.51001 11.57L9.40002 11.31C9.37002 11.21 9.35999 11.1 9.35999 11C9.35999 10.72 9.46002 10.47 9.65002 10.27L10.03 9.88002C10.14 9.77002 10.18 9.71002 10.2 9.67002C10.17 9.60002 10.13 9.54001 10.08 9.47001L8.90997 7.82002L8.78998 7.74Z" fill="#001113"/>
</svg>
