<svg width="80" height="80" viewBox="0 0 80 80" fill="none" xmlns="http://www.w3.org/2000/svg">
<path d="M73 29.6667C73 29.1328 72.5671 28.6999 72.0332 28.6999H64.7334V25.4669H72.0332C72.5671 25.4669 73 25.034 73 24.5001C73 23.9661 72.5671 23.5333 72.0332 23.5333H64.7334V23.2894C64.7334 22.4791 64.4178 21.7174 63.8448 21.1444L58.8554 16.1549C58.2824 15.5819 57.5207 15.2664 56.7104 15.2664H56.4665V7.9668C56.4665 7.43287 56.0336 7 55.4997 7C54.9658 7 54.5329 7.43287 54.5329 7.9668V15.2666H51.2998V7.9668C51.2998 7.43287 50.8669 7 50.333 7C49.7991 7 49.3662 7.43287 49.3662 7.9668V15.2666H46.1331V7.9668C46.1331 7.43287 45.7002 7 45.1663 7C44.6324 7 44.1995 7.43287 44.1995 7.9668V15.2666H40.9668V7.9668C40.9668 7.43287 40.5339 7 40 7C39.4661 7 39.0332 7.43287 39.0332 7.9668V15.2666H35.8001V7.9668C35.8001 7.43287 35.3672 7 34.8333 7C34.2994 7 33.8665 7.43287 33.8665 7.9668V15.2666H30.6334V7.9668C30.6334 7.43287 30.2005 7 29.6666 7C29.1327 7 28.6998 7.43287 28.6998 7.9668V15.2666H25.4667V7.9668C25.4667 7.43287 25.0339 7 24.4999 7C23.966 7 23.5331 7.43287 23.5331 7.9668V15.2666H23.2892C22.4789 15.2666 21.7172 15.5822 21.1442 16.1552L16.1548 21.1446C15.5818 21.7176 15.2662 22.4793 15.2662 23.2896V23.5335H7.9668C7.43287 23.5335 7 23.9664 7 24.5003C7 25.0342 7.43287 25.4671 7.9668 25.4671H15.2666V28.7002H7.9668C7.43287 28.7002 7 29.1331 7 29.667C7 30.2009 7.43287 30.6338 7.9668 30.6338H15.2666V33.8669H7.9668C7.43287 33.8669 7 34.2998 7 34.8337C7 35.3676 7.43287 35.8005 7.9668 35.8005H15.2666V39.0332H7.9668C7.43287 39.0332 7 39.4661 7 40C7 40.5339 7.43287 40.9668 7.9668 40.9668H15.2666V44.1999H7.9668C7.43287 44.1999 7 44.6328 7 45.1667C7 45.7006 7.43287 46.1335 7.9668 46.1335H15.2666V49.3666H7.9668C7.43287 49.3666 7 49.7994 7 50.3334C7 50.8673 7.43287 51.3002 7.9668 51.3002H15.2666V54.5333H7.9668C7.43287 54.5333 7 54.9661 7 55.5001C7 56.034 7.43287 56.4669 7.9668 56.4669H15.2666V56.7108C15.2666 57.5211 15.5822 58.2828 16.1552 58.8558L21.1446 63.8452C21.7176 64.4182 22.4793 64.7338 23.2896 64.7338H23.5335V72.0332C23.5335 72.5671 23.9664 73 24.5003 73C25.0342 73 25.4671 72.5671 25.4671 72.0332V64.7334H28.7002V72.0332C28.7002 72.5671 29.1331 73 29.667 73C30.2009 73 30.6338 72.5671 30.6338 72.0332V64.7334H33.8669V72.0332C33.8669 72.5671 34.2998 73 34.8337 73C35.3676 73 35.8005 72.5671 35.8005 72.0332V64.7334H39.0332V72.0332C39.0332 72.5671 39.4661 73 40 73C40.5339 73 40.9668 72.5671 40.9668 72.0332V64.7334H44.1999V72.0332C44.1999 72.5671 44.6328 73 45.1667 73C45.7006 73 46.1335 72.5671 46.1335 72.0332V64.7334H49.3666V72.0332C49.3666 72.5671 49.7994 73 50.3334 73C50.8673 73 51.3002 72.5671 51.3002 72.0332V64.7334H54.5333V72.0332C54.5333 72.5671 54.9661 73 55.5001 73C56.034 73 56.4669 72.5671 56.4669 72.0332V64.7334H56.7108C57.5211 64.7334 58.2828 64.4178 58.8558 63.8448L63.8452 58.8554C64.4182 58.2824 64.7338 57.5207 64.7338 56.7104V56.4665H72.0332C72.5671 56.4665 73 56.0336 73 55.4997C73 54.9658 72.5671 54.5329 72.0332 54.5329H64.7334V51.2998H72.0332C72.5671 51.2998 73 50.8669 73 50.333C73 49.7991 72.5671 49.3662 72.0332 49.3662H64.7334V46.1331H72.0332C72.5671 46.1331 73 45.7002 73 45.1663C73 44.6324 72.5671 44.1995 72.0332 44.1995H64.7334V40.9668H72.0332C72.5671 40.9668 73 40.5339 73 40C73 39.4661 72.5671 39.0332 72.0332 39.0332H64.7334V35.8001H72.0332C72.5671 35.8001 73 35.3672 73 34.8333C73 34.2994 72.5671 33.8665 72.0332 33.8665H64.7334V30.6334H72.0332V30.6335C72.5671 30.6335 73 30.2007 73 29.6667ZM62.7999 56.7105C62.7998 57.0043 62.6853 57.2804 62.4776 57.4882L57.4882 62.4776C57.2804 62.6853 57.0043 62.7998 56.7105 62.7998H23.2895C22.9957 62.7998 22.7196 62.6853 22.5118 62.4776L17.5224 57.4882C17.3147 57.2804 17.2002 57.0043 17.2002 56.7105V23.2895C17.2002 22.9957 17.3147 22.7196 17.5224 22.5118L22.5118 17.5224C22.7196 17.3147 22.9957 17.2002 23.2895 17.2002H56.7106C57.0044 17.2002 57.2805 17.3147 57.4883 17.5224L62.4778 22.5118C62.6854 22.7196 62.7999 22.9957 62.7999 23.2895V56.7105Z" fill="#00AFC1"/>
<path d="M54.4666 22.4998C53.9326 22.4998 53.4998 22.9326 53.4998 23.4666C53.4998 24.0005 53.9326 24.4334 54.4666 24.4334C55.0731 24.4334 55.5664 24.9268 55.5664 25.5332V28.6996H48.2666C48.2298 28.6996 48.2 28.6699 48.2 28.6331V24.4332H50.3332C50.8671 24.4332 51.3 24.0004 51.3 23.4664C51.3 22.9325 50.8671 22.4996 50.3332 22.4996H25.5333C23.8606 22.4996 22.4999 23.8605 22.4999 25.5331V54.4662C22.4999 56.1389 23.8607 57.4997 25.5333 57.4997C26.0672 57.4997 26.5001 57.0669 26.5001 56.5329C26.5001 55.999 26.0672 55.5662 25.5333 55.5662C24.9268 55.5662 24.4335 55.0727 24.4335 54.4662V25.5332C24.4335 24.9267 24.9269 24.4334 25.5333 24.4334H41.0998V25.7104C41.0998 26.0042 40.9853 26.2805 40.7776 26.4883L37.8551 29.4108C37.6473 29.6186 37.371 29.7331 37.0772 29.7331H34.6079C34.2033 28.5332 33.068 27.6665 31.7333 27.6665C30.0606 27.6665 28.6999 29.0273 28.6999 30.6999C28.6999 32.3724 30.0607 33.7333 31.7333 33.7333C33.0679 33.7333 34.2031 32.8665 34.6079 31.6667H37.0772C37.8874 31.6667 38.6491 31.3511 39.2222 30.7781L42.1449 27.8554C42.7179 27.2824 43.0335 26.5207 43.0335 25.7104V24.4334H46.2666V28.6333C46.2666 29.7362 47.1638 30.6334 48.2667 30.6334H55.5665V33.8665H45.9746C45.57 32.6666 44.4347 31.7998 43.1 31.7998C41.4273 31.7998 40.0666 33.1607 40.0666 34.8333C40.0666 36.5058 41.4274 37.8667 43.1 37.8667C44.4346 37.8667 45.5698 36.9999 45.9746 35.8001H55.5665V39.033H49.1226C48.3123 39.033 47.5506 39.3486 46.9776 39.9216L44.0549 42.8443C43.8471 43.0519 43.571 43.1664 43.2772 43.1664H39.7745C39.3698 41.9665 38.2346 41.0998 36.8999 41.0998C35.2272 41.0998 33.8664 42.4606 33.8664 44.1332C33.8664 45.8058 35.2273 47.1666 36.8999 47.1666C38.2344 47.1666 39.3697 46.2999 39.7745 45.1H43.2772C44.0875 45.1 44.8493 44.7844 45.4222 44.2114L48.3449 41.2888C48.5527 41.0811 48.8288 40.9666 49.1227 40.9666H55.5665V44.1997H51.1894C50.3791 44.1997 49.6174 44.5153 49.0444 45.0883L43.0217 51.1109C42.4488 51.6838 42.1332 52.4456 42.1332 53.2559V55.5664H36.8335V53.2559C36.8335 52.4456 36.5179 51.6838 35.9449 51.1109L30.9555 46.1215C30.7478 45.9138 30.6333 45.6377 30.6333 45.3438V41.841C31.8332 41.4363 32.7 40.3011 32.7 38.9664C32.7 37.2937 31.3391 35.933 29.6665 35.933C27.994 35.933 26.6331 37.2938 26.6331 38.9664C26.6331 40.3011 27.4999 41.4362 28.6998 41.841V45.3438C28.6998 46.1541 29.0153 46.9159 29.5883 47.4888L34.5777 52.4782C34.7854 52.6859 34.8999 52.962 34.8999 53.2559V55.5664H29.6663C29.1324 55.5664 28.6995 55.9993 28.6995 56.5332C28.6995 57.0671 29.1324 57.5 29.6663 57.5H54.4666C56.1392 57.5 57.5 56.1391 57.5 54.4665V25.5332C57.5 23.8606 56.1391 22.4998 54.4666 22.4998ZM31.7333 31.7997C31.1268 31.7997 30.6335 31.3063 30.6335 30.6999C30.6335 30.0935 31.1269 29.6 31.7333 29.6C32.3397 29.6 32.8331 30.0935 32.8331 30.6999C32.8331 31.3063 32.3398 31.7997 31.7333 31.7997ZM43.0999 35.9331C42.4934 35.9331 42 35.4396 42 34.8333C42 34.2269 42.4935 33.7334 43.0999 33.7334C43.7062 33.7334 44.1997 34.2269 44.1997 34.8333C44.1997 35.4396 43.7064 35.9331 43.0999 35.9331ZM36.9 45.233C36.2935 45.233 35.8002 44.7396 35.8002 44.1332C35.8002 43.5268 36.2936 43.0334 36.9 43.0334C37.5064 43.0334 37.9998 43.5268 37.9998 44.1332C37.9998 44.7396 37.5064 45.233 36.9 45.233ZM29.6667 40.0663C29.0603 40.0663 28.5669 39.5729 28.5669 38.9665C28.5669 38.3601 29.0602 37.8667 29.6667 37.8667C30.2732 37.8667 30.7665 38.3601 30.7665 38.9665C30.7665 39.5729 30.2731 40.0663 29.6667 40.0663ZM55.5665 54.4663C55.5664 55.073 55.0729 55.5663 54.4666 55.5663H44.0668V53.2558C44.0668 52.962 44.1811 52.6857 44.3889 52.4781L50.4116 46.4553C50.6194 46.2477 50.8955 46.1332 51.1894 46.1332H55.5665V54.4663Z" fill="#00AFC1"/>
</svg>
