<svg width="80" height="80" viewBox="0 0 80 80" fill="none" xmlns="http://www.w3.org/2000/svg">
<g clip-path="url(#clip0_63_2975)">
<path d="M9.33375 14.6663H1.33375C0.5975 14.6663 0 14.0688 0 13.3337C0 12.5975 0.5975 12 1.33375 12H9.33375C10.07 12 10.6675 12.5975 10.6675 13.3337C10.6663 14.0688 10.0688 14.6663 9.33375 14.6663Z" fill="#00AFC1"/>
<path d="M9.33375 68C8.5975 68 8 67.4025 8 66.6663V13.3337C8 12.5975 8.5975 12 9.33375 12C10.07 12 10.6675 12.5975 10.6675 13.3337V66.6675C10.6663 67.4025 10.0687 68 9.33375 68Z" fill="#00AFC1"/>
<path d="M9.33375 40H3.99999C3.26374 40 2.66624 39.4025 2.66624 38.6663V28C2.66624 27.2638 3.26374 26.6663 3.99999 26.6663H9.33375C10.07 26.6663 10.6675 27.2638 10.6675 28V38.6663C10.6662 39.4025 10.0687 40 9.33375 40ZM5.33375 37.3338H8V29.3338H5.33375V37.3338Z" fill="#00AFC1"/>
<path d="M9.33375 61.3338H3.99999C3.26374 61.3338 2.66624 60.7362 2.66624 60V49.3337C2.66624 48.5975 3.26374 48 3.99999 48H9.33375C10.07 48 10.6675 48.5975 10.6675 49.3337V60C10.6662 60.7362 10.0687 61.3338 9.33375 61.3338ZM5.33375 58.6662H8V50.6662H5.33375V58.6662Z" fill="#00AFC1"/>
<path d="M48 68H18.6663C17.93 68 17.3325 67.4025 17.3325 66.6663V57.3325C17.3325 56.5963 17.93 55.9988 18.6663 55.9988H48C48.7362 55.9988 49.3337 56.5963 49.3337 57.3325V66.6663C49.3337 67.4025 48.7362 68 48 68ZM20 65.3338H46.6662V58.6675H20V65.3338Z" fill="#00AFC1"/>
<path d="M25.3337 68C24.5975 68 24 67.4025 24 66.6663V62.6663C24 61.93 24.5975 61.3325 25.3337 61.3325C26.07 61.3325 26.6675 61.93 26.6675 62.6663V66.6663C26.6662 67.4025 26.0688 68 25.3337 68Z" fill="#00AFC1"/>
<path d="M41.3338 68C40.5975 68 40 67.4025 40 66.6663V62.6663C40 61.93 40.5975 61.3325 41.3338 61.3325C42.07 61.3325 42.6675 61.93 42.6675 62.6663V66.6663C42.6662 67.4025 42.0688 68 41.3338 68Z" fill="#00AFC1"/>
<path d="M61.3338 68C60.5975 68 60 67.4025 60 66.6663V62.6663C60 61.93 60.5975 61.3325 61.3338 61.3325C62.07 61.3325 62.6675 61.93 62.6675 62.6663V66.6663C62.6662 67.4025 62.0688 68 61.3338 68Z" fill="#00AFC1"/>
<path d="M36 68C35.2637 68 34.6662 67.4025 34.6662 66.6663V62.6663C34.6662 61.93 35.2637 61.3325 36 61.3325C36.7362 61.3325 37.3337 61.93 37.3337 62.6663V66.6663C37.3337 67.4025 36.7362 68 36 68Z" fill="#00AFC1"/>
<path d="M30.6663 68C29.93 68 29.3325 67.4025 29.3325 66.6663V62.6663C29.3325 61.93 29.93 61.3325 30.6663 61.3325C31.4025 61.3325 32 61.93 32 62.6663V66.6663C32 67.4025 31.4025 68 30.6663 68Z" fill="#00AFC1"/>
<path d="M66.6663 68H56C55.2638 68 54.6663 67.4025 54.6663 66.6663V57.3325C54.6663 56.5963 55.2638 55.9988 56 55.9988H66.6663C67.4025 55.9988 68 56.5963 68 57.3325V66.6663C68 67.4025 67.4025 68 66.6663 68ZM57.3338 65.3338H65.3338V58.6675H57.3338V65.3338Z" fill="#00AFC1"/>
<path d="M9.33375 24H3.99999C3.26374 24 2.66624 23.4025 2.66624 22.6663C2.66624 21.93 3.26374 21.3325 3.99999 21.3325H9.33375C10.07 21.3325 10.6675 21.93 10.6675 22.6663C10.6675 23.4025 10.0687 24 9.33375 24Z" fill="#00AFC1"/>
<path d="M9.33375 45.3338H3.99999C3.26374 45.3338 2.66624 44.7363 2.66624 44C2.66624 43.2638 3.26374 42.6663 3.99999 42.6663H9.33375C10.07 42.6663 10.6675 43.2638 10.6675 44C10.6662 44.7363 10.0687 45.3338 9.33375 45.3338Z" fill="#00AFC1"/>
<path d="M28 53.3337C19.9138 53.3337 13.3338 46.7537 13.3338 38.6675C13.3338 30.5812 19.9138 24 28 24C36.0863 24 42.6663 30.58 42.6663 38.6663C42.6663 46.7525 36.0863 53.3337 28 53.3337ZM28 26.6662C21.3825 26.6662 16 32.05 16 38.6663C16 45.2825 21.3825 50.6663 28 50.6663C34.6175 50.6663 40 45.2825 40 38.6663C40 32.05 34.6175 26.6662 28 26.6662Z" fill="#00AFC1"/>
<path d="M28 44C25.0587 44 22.6662 41.6075 22.6662 38.6663C22.6662 35.725 25.0587 33.3325 28 33.3325C30.9412 33.3325 33.3337 35.725 33.3337 38.6663C33.3337 41.6075 30.9412 44 28 44ZM28 36C26.5287 36 25.3337 37.1963 25.3337 38.6663C25.3337 40.1375 26.53 41.3325 28 41.3325C29.4712 41.3325 30.6662 40.1363 30.6662 38.6663C30.6662 37.1963 29.4712 36 28 36Z" fill="#00AFC1"/>
<path d="M72.0012 58.6663H9.33375C8.5975 58.6663 8 58.0688 8 57.3325V20C8 19.2638 8.5975 18.6663 9.33375 18.6663H72.0012C76.4125 18.6663 80 22.2538 80 26.665V50.6688C80 55.0788 76.4125 58.6663 72.0012 58.6663ZM10.6662 56H72.0012C74.9412 56 77.3337 53.6075 77.3337 50.6675V26.665C77.3337 23.725 74.9412 21.3325 72.0012 21.3325H10.6662V56Z" fill="#00AFC1"/>
<path d="M28 36C27.2637 36 26.6662 35.4025 26.6662 34.6663C26.6662 31.7938 23.0012 29.3325 20 29.3325C19.2637 29.3325 18.6662 28.735 18.6662 27.9988C18.6662 27.2625 19.2637 26.665 20 26.665C24.3162 26.665 29.3337 30.16 29.3337 34.665C29.3337 35.4025 28.7362 36 28 36Z" fill="#00AFC1"/>
<path d="M36 50.6663C31.6837 50.6663 26.6662 47.1713 26.6662 42.6663C26.6662 41.93 27.2637 41.3325 28 41.3325C28.7362 41.3325 29.3337 41.93 29.3337 42.6663C29.3337 45.5388 32.9987 48 36 48C36.7362 48 37.3337 48.5975 37.3337 49.3338C37.3337 50.0688 36.7362 50.6663 36 50.6663Z" fill="#00AFC1"/>
<path d="M17.3337 48C16.5975 48 16 47.4025 16 46.6663C16 42.35 19.495 37.3325 24 37.3325C24.7363 37.3325 25.3337 37.93 25.3337 38.6663C25.3337 39.4025 24.7363 40 24 40C21.1275 40 18.6662 43.6663 18.6662 46.6663C18.6662 47.4025 18.0687 48 17.3337 48Z" fill="#00AFC1"/>
<path d="M32 40C31.2638 40 30.6663 39.4025 30.6663 38.6663C30.6663 37.93 31.2638 37.3325 32 37.3325C34.8725 37.3325 37.3338 33.6663 37.3338 30.6663C37.3338 29.93 37.9313 29.3325 38.6675 29.3325C39.4038 29.3325 40.0013 29.93 40.0013 30.6663C40 34.9825 36.505 40 32 40Z" fill="#00AFC1"/>
<path d="M14.8013 38.1149C14.46 38.1149 14.1188 37.9837 13.8588 37.7237C13.3375 37.2037 13.3375 36.3599 13.8588 35.8387C15.3425 34.3549 17.5738 33.3049 19.8263 33.0324C22.37 32.7187 24.605 33.3849 26.115 34.8962C26.635 35.4174 26.635 36.2612 26.115 36.7812C25.5938 37.3024 24.75 37.3024 24.23 36.7812C23.325 35.8762 21.8388 35.4749 20.1488 35.6787C18.4675 35.8824 16.8225 36.6474 15.7463 37.7237C15.4838 37.9837 15.1413 38.1149 14.8013 38.1149Z" fill="#00AFC1"/>
<path d="M34.9738 44.3763C32.9312 44.3763 31.1537 43.7076 29.8862 42.4376C29.3662 41.9163 29.3662 41.0726 29.8862 40.5526C30.4075 40.0313 31.2512 40.0313 31.7712 40.5526C32.6762 41.4576 34.1637 41.8613 35.8525 41.6551C37.5338 41.4513 39.1788 40.6863 40.255 39.6101C40.7763 39.0888 41.62 39.0888 42.14 39.6101C42.6613 40.1301 42.6613 40.9738 42.14 41.4951C40.6563 42.9788 38.425 44.0288 36.1725 44.3013C35.765 44.3526 35.3638 44.3763 34.9738 44.3763Z" fill="#00AFC1"/>
<path d="M26.115 53.1987C25.7738 53.1987 25.4325 53.0674 25.1725 52.8074C22.12 49.755 21.045 43.7362 24.23 40.5512C24.7513 40.03 25.595 40.03 26.115 40.5512C26.6363 41.0712 26.6363 41.915 26.115 42.4362C24.0838 44.4675 24.935 48.8 27.0575 50.9212C27.5788 51.4424 27.5788 52.2849 27.0575 52.8062C26.7975 53.0687 26.4563 53.1987 26.115 53.1987Z" fill="#00AFC1"/>
<path d="M30.8275 37.1724C30.4862 37.1724 30.145 37.0412 29.885 36.7812C29.3637 36.2612 29.3637 35.4174 29.885 34.8962C31.9162 32.8649 31.065 28.5324 28.9425 26.4112C28.4212 25.8899 28.4212 25.0474 28.9425 24.5262C29.4625 24.0049 30.3075 24.0049 30.8275 24.5262C33.88 27.5787 34.955 33.5974 31.77 36.7824C31.5112 37.0412 31.1687 37.1724 30.8275 37.1724Z" fill="#00AFC1"/>
<path d="M60 53.3337C51.9137 53.3337 45.3337 46.7537 45.3337 38.6675C45.3337 30.5812 51.9137 24 60 24C68.0862 24 74.6662 30.58 74.6662 38.6663C74.6662 46.7525 68.0862 53.3337 60 53.3337ZM60 26.6662C53.3825 26.6662 48 32.05 48 38.6663C48 45.2825 53.3825 50.6663 60 50.6663C66.6175 50.6663 72 45.2825 72 38.6663C72 32.05 66.6175 26.6662 60 26.6662Z" fill="#00AFC1"/>
<path d="M60 44C57.0588 44 54.6663 41.6075 54.6663 38.6663C54.6663 35.725 57.0588 33.3325 60 33.3325C62.9413 33.3325 65.3338 35.725 65.3338 38.6663C65.3338 41.6075 62.9413 44 60 44ZM60 36C58.5288 36 57.3338 37.1963 57.3338 38.6663C57.3338 40.1375 58.53 41.3325 60 41.3325C61.47 41.3325 62.6663 40.1363 62.6663 38.6663C62.6663 37.1963 61.4713 36 60 36Z" fill="#00AFC1"/>
<path d="M60 36C59.2638 36 58.6663 35.4025 58.6663 34.6663C58.6663 31.7938 55.0013 29.3325 52 29.3325C51.2638 29.3325 50.6663 28.735 50.6663 27.9988C50.6663 27.2625 51.2638 26.665 52 26.665C56.3163 26.665 61.3338 30.16 61.3338 34.665C61.3338 35.4025 60.7363 36 60 36Z" fill="#00AFC1"/>
<path d="M68 50.6663C63.6837 50.6663 58.6662 47.1713 58.6662 42.6663C58.6662 41.93 59.2637 41.3325 60 41.3325C60.7362 41.3325 61.3337 41.93 61.3337 42.6663C61.3337 45.5388 64.9987 48 68 48C68.7362 48 69.3337 48.5975 69.3337 49.3338C69.3337 50.0688 68.7362 50.6663 68 50.6663Z" fill="#00AFC1"/>
<path d="M49.3337 48C48.5975 48 48 47.4025 48 46.6663C48 42.35 51.495 37.3325 56 37.3325C56.7362 37.3325 57.3338 37.93 57.3338 38.6663C57.3338 39.4025 56.7362 40 56 40C53.1275 40 50.6662 43.6663 50.6662 46.6663C50.6662 47.4025 50.0687 48 49.3337 48Z" fill="#00AFC1"/>
<path d="M64 40C63.2637 40 62.6662 39.4025 62.6662 38.6663C62.6662 37.93 63.2637 37.3325 64 37.3325C66.8725 37.3325 69.3337 33.6663 69.3337 30.6663C69.3337 29.93 69.9312 29.3325 70.6675 29.3325C71.4037 29.3325 72.0012 29.93 72.0012 30.6663C72 34.9825 68.505 40 64 40Z" fill="#00AFC1"/>
<path d="M46.8012 38.1149C46.46 38.1149 46.1187 37.9837 45.8587 37.7237C45.3375 37.2037 45.3375 36.3599 45.8587 35.8387C47.3425 34.3549 49.5737 33.3049 51.8262 33.0324C54.37 32.7187 56.605 33.3849 58.115 34.8962C58.635 35.4174 58.635 36.2612 58.115 36.7812C57.5937 37.3024 56.75 37.3024 56.23 36.7812C55.325 35.8762 53.8375 35.4749 52.1487 35.6787C50.4675 35.8824 48.8225 36.6474 47.7462 37.7237C47.4837 37.9837 47.1412 38.1149 46.8012 38.1149Z" fill="#00AFC1"/>
<path d="M66.9738 44.3763C64.9313 44.3763 63.1537 43.7076 61.8862 42.4376C61.3662 41.9163 61.3662 41.0726 61.8862 40.5526C62.4075 40.0313 63.2512 40.0313 63.7712 40.5526C64.6762 41.4576 66.1625 41.8613 67.8525 41.6551C69.5338 41.4513 71.1788 40.6863 72.255 39.6101C72.7763 39.0888 73.62 39.0888 74.14 39.6101C74.6613 40.1301 74.6613 40.9738 74.14 41.4951C72.6563 42.9788 70.425 44.0288 68.1725 44.3013C67.765 44.3526 67.3638 44.3763 66.9738 44.3763Z" fill="#00AFC1"/>
<path d="M58.115 53.1987C57.7737 53.1987 57.4325 53.0674 57.1725 52.8074C54.12 49.755 53.045 43.7362 56.23 40.5512C56.7512 40.03 57.595 40.03 58.115 40.5512C58.6362 41.0712 58.6362 41.915 58.115 42.4362C56.0838 44.4675 56.935 48.8 59.0575 50.9212C59.5787 51.4424 59.5787 52.2849 59.0575 52.8062C58.7975 53.0687 58.4562 53.1987 58.115 53.1987Z" fill="#00AFC1"/>
<path d="M62.8275 37.1724C62.4862 37.1724 62.145 37.0412 61.885 36.7812C61.3637 36.2612 61.3637 35.4174 61.885 34.8962C63.9162 32.8649 63.065 28.5324 60.9425 26.4112C60.4212 25.8899 60.4212 25.0474 60.9425 24.5262C61.4625 24.0049 62.3075 24.0049 62.8275 24.5262C65.88 27.5787 66.955 33.5974 63.77 36.7824C63.5112 37.0412 63.1687 37.1724 62.8275 37.1724Z" fill="#00AFC1"/>
</g>
<defs>
<clipPath id="clip0_63_2975">
<rect width="80" height="80" fill="white"/>
</clipPath>
</defs>
</svg>
