<svg width="256" height="256" viewBox="0 0 256 256" fill="none" xmlns="http://www.w3.org/2000/svg">
<path d="M194.196 246.874L62.0542 247C32.983 247.026 9.17764 223.267 9.1446 194.196L9.01906 62.0542C8.99264 32.983 32.7518 9.17764 61.823 9.1446L193.965 9.01906C223.036 8.99264 246.841 32.7518 246.874 61.823L247 193.965C247.033 223.043 223.267 246.848 194.196 246.874Z" fill="url(#paint0_radial_236_3972)"/>
<path d="M194.196 246.874L62.0542 247C32.983 247.026 9.17764 223.267 9.1446 194.196L9.01906 62.0542C8.99264 32.983 32.7518 9.17764 61.823 9.1446L193.965 9.01906C223.036 8.99264 246.841 32.7518 246.874 61.823L247 193.965C247.033 223.043 223.267 246.848 194.196 246.874Z" fill="url(#paint1_radial_236_3972)"/>
<path d="M128.013 174.263C102.516 174.263 81.7632 153.516 81.7632 128.013C81.7632 102.509 102.516 81.7632 128.013 81.7632C153.51 81.7632 174.263 102.509 174.263 128.013C174.263 153.516 153.51 174.263 128.013 174.263ZM128.013 94.9774C109.797 94.9774 94.9774 109.797 94.9774 128.013C94.9774 146.229 109.797 161.048 128.013 161.048C146.229 161.048 161.048 146.229 161.048 128.013C161.048 109.797 146.229 94.9774 128.013 94.9774Z" fill="white"/>
<path d="M177.566 88.3704C183.04 88.3704 187.477 83.9332 187.477 78.4597C187.477 72.9862 183.04 68.5491 177.566 68.5491C172.093 68.5491 167.655 72.9862 167.655 78.4597C167.655 83.9332 172.093 88.3704 177.566 88.3704Z" fill="white"/>
<path d="M167.655 213.905H88.3703C62.8735 213.905 42.1206 193.159 42.1206 167.655V88.3703C42.1206 62.8669 62.8735 42.1206 88.3703 42.1206H167.655C193.152 42.1206 213.905 62.8669 213.905 88.3703V167.655C213.905 193.159 193.152 213.905 167.655 213.905ZM88.3703 55.3348C70.1545 55.3348 55.3348 70.1545 55.3348 88.3703V167.655C55.3348 185.871 70.1545 200.691 88.3703 200.691H167.655C185.871 200.691 200.691 185.871 200.691 167.655V88.3703C200.691 70.1545 185.871 55.3348 167.655 55.3348H88.3703Z" fill="white"/>
<defs>
<radialGradient id="paint0_radial_236_3972" cx="0" cy="0" r="1" gradientUnits="userSpaceOnUse" gradientTransform="translate(97.4881 247.172) scale(296.652)">
<stop stop-color="#FFDD55"/>
<stop offset="0.328" stop-color="#FF543F"/>
<stop offset="0.348" stop-color="#FC5245"/>
<stop offset="0.504" stop-color="#E64771"/>
<stop offset="0.643" stop-color="#D53E91"/>
<stop offset="0.761" stop-color="#CC39A4"/>
<stop offset="0.841" stop-color="#C837AB"/>
</radialGradient>
<radialGradient id="paint1_radial_236_3972" cx="0" cy="0" r="1" gradientUnits="userSpaceOnUse" gradientTransform="translate(47.3138 6.04787) scale(196.977 131.246)">
<stop stop-color="#4168C9"/>
<stop offset="0.999" stop-color="#4168C9" stop-opacity="0"/>
</radialGradient>
</defs>
</svg>
