<svg width="80" height="80" viewBox="0 0 80 80" fill="none" xmlns="http://www.w3.org/2000/svg">
<path d="M76.1833 23.9445C77.7042 23.9445 78.9431 22.7057 78.9431 21.1847V8.75974C78.9431 7.23882 77.7042 6 76.1833 6H23.4783C21.9574 6 20.7186 7.23882 20.7186 8.75974V21.1847C20.7186 22.7057 21.9574 23.9445 23.4783 23.9445H24.8275V27.6977H23.4783C21.9574 27.6977 20.7186 28.9365 20.7186 30.4575V38.749C14.4386 39.0679 9.40977 44.1826 9.26259 50.5116C4.39317 52.1552 1.05695 56.7548 1.05695 61.9308C1.05695 68.5787 6.46605 74.0001 13.1262 74.0001C15.8001 74.0001 18.4004 73.1047 20.5101 71.4611C22.6197 73.1047 25.22 74.0001 27.8939 74.0001C30.8131 74.0001 33.5729 72.9698 35.7561 71.0809C37.9394 72.9698 40.6991 74.0001 43.6183 74.0001C48.3651 74.0001 52.4741 71.2281 54.4365 67.2295H76.1833C77.7042 67.2295 78.9431 65.9907 78.9431 64.4698V52.0571C78.9431 50.5361 77.7042 49.2973 76.1833 49.2973H74.8341V45.6422H76.1833C77.7042 45.6422 78.9431 44.4034 78.9431 42.8825V30.4575C78.9431 28.9365 77.7042 27.6977 76.1833 27.6977H74.8341V23.9445H76.1833ZM22.5584 21.1847V8.75974C22.5584 8.25686 22.9755 7.83983 23.4783 7.83983H76.1833C76.6862 7.83983 77.1032 8.25686 77.1032 8.75974V21.1847C77.1032 21.6876 76.6862 22.1046 76.1833 22.1046H73.9142H25.7475H23.4783C22.9632 22.1046 22.5584 21.6876 22.5584 21.1847ZM43.6183 72.1603C40.8954 72.1603 38.3319 71.1054 36.4062 69.1798C36.2222 68.9958 35.9892 68.9099 35.7561 68.9099C35.5231 68.9099 35.29 68.9958 35.1061 69.1798C33.1804 71.1054 30.6169 72.1603 27.8939 72.1603C25.404 72.1603 23 71.2404 21.1234 69.5845C20.7799 69.2779 20.2525 69.2779 19.9091 69.5845C18.0324 71.2526 15.6284 72.1603 13.1385 72.1603C7.49635 72.1603 2.90904 67.573 2.90904 61.9308C2.90904 57.3312 6.01222 53.2836 10.4523 52.0693C10.8694 51.9589 11.1392 51.5787 11.1269 51.1494L11.1024 50.7815C11.1024 45.1393 15.6897 40.552 21.3319 40.552C24.4718 40.552 27.4033 41.9748 29.3658 44.4647C29.6724 44.8572 30.2489 44.9308 30.6537 44.6242C32.285 43.3608 34.2229 42.6862 36.2713 42.6862C41.0548 42.6862 45.0657 46.4272 45.3968 51.1985C45.4214 51.591 45.7035 51.9344 46.096 52.0203C50.6588 53.161 53.8478 57.2331 53.8478 61.9308C53.8355 67.573 49.2482 72.1603 43.6183 72.1603ZM77.1032 52.0571V64.4698C77.1032 64.9727 76.6862 65.3897 76.1833 65.3897H55.1725C55.5036 64.2981 55.6876 63.1328 55.6876 61.9308C55.6876 57.2699 53.0383 53.1364 49.0029 51.1372H73.9265H76.1956C76.6862 51.1372 77.1032 51.5542 77.1032 52.0571ZM72.9943 49.2973H46.9546C46.6357 47.9726 46.0714 46.7338 45.3232 45.6422H72.9943V49.2973ZM77.1032 30.4575V42.8825C77.1032 43.3853 76.6862 43.8024 76.1833 43.8024H74.3067C74.184 43.741 74.0491 43.7042 73.9142 43.7042H43.6306C41.6681 41.9257 39.0801 40.8464 36.259 40.8464C34.088 40.8464 32.0151 41.4719 30.2244 42.6617C28.2128 40.4539 25.5021 39.0924 22.5462 38.7858V30.4575C22.5462 29.9546 22.9632 29.5376 23.4661 29.5376H25.7352H73.9019H76.1711C76.6862 29.5376 77.1032 29.9546 77.1032 30.4575ZM72.9943 27.6977H26.6674V23.9445H72.9943V27.6977Z" fill="#00AFC1"/>
<path d="M26.4711 13.9847C26.974 13.9847 27.391 13.5677 27.391 13.0648V11.2004C27.391 10.6975 26.974 10.2805 26.4711 10.2805C25.9682 10.2805 25.5512 10.6975 25.5512 11.2004V13.0648C25.5512 13.5799 25.9682 13.9847 26.4711 13.9847Z" fill="#00AFC1"/>
<path d="M30.6905 13.9847C31.1934 13.9847 31.6104 13.5677 31.6104 13.0648V11.2004C31.6104 10.6975 31.1934 10.2805 30.6905 10.2805C30.1876 10.2805 29.7706 10.6975 29.7706 11.2004V13.0648C29.7706 13.5799 30.1876 13.9847 30.6905 13.9847Z" fill="#00AFC1"/>
<path d="M34.9098 13.9847C35.4127 13.9847 35.8297 13.5677 35.8297 13.0648V11.2004C35.8297 10.6975 35.4127 10.2805 34.9098 10.2805C34.4069 10.2805 33.9899 10.6975 33.9899 11.2004V13.0648C33.9899 13.5799 34.4069 13.9847 34.9098 13.9847Z" fill="#00AFC1"/>
<path d="M39.1291 13.9847C39.632 13.9847 40.0491 13.5677 40.0491 13.0648V11.2004C40.0491 10.6975 39.632 10.2805 39.1291 10.2805C38.6263 10.2805 38.2092 10.6975 38.2092 11.2004V13.0648C38.2092 13.5799 38.6263 13.9847 39.1291 13.9847Z" fill="#00AFC1"/>
<path d="M26.4711 19.6639C26.974 19.6639 27.391 19.2469 27.391 18.744V16.8796C27.391 16.3767 26.974 15.9597 26.4711 15.9597C25.9682 15.9597 25.5512 16.3767 25.5512 16.8796V18.744C25.5512 19.2469 25.9682 19.6639 26.4711 19.6639Z" fill="#00AFC1"/>
<path d="M30.6905 19.6639C31.1934 19.6639 31.6104 19.2469 31.6104 18.744V16.8796C31.6104 16.3767 31.1934 15.9597 30.6905 15.9597C30.1876 15.9597 29.7706 16.3767 29.7706 16.8796V18.744C29.7706 19.2469 30.1876 19.6639 30.6905 19.6639Z" fill="#00AFC1"/>
<path d="M34.9098 19.6639C35.4127 19.6639 35.8297 19.2469 35.8297 18.744V16.8796C35.8297 16.3767 35.4127 15.9597 34.9098 15.9597C34.4069 15.9597 33.9899 16.3767 33.9899 16.8796V18.744C33.9899 19.2469 34.4069 19.6639 34.9098 19.6639Z" fill="#00AFC1"/>
<path d="M39.1291 19.6639C39.632 19.6639 40.0491 19.2469 40.0491 18.744V16.8796C40.0491 16.3767 39.632 15.9597 39.1291 15.9597C38.6263 15.9597 38.2092 16.3767 38.2092 16.8796V18.744C38.2092 19.2469 38.6263 19.6639 39.1291 19.6639Z" fill="#00AFC1"/>
<path d="M70.5657 18.707C72.5159 18.707 74.0982 17.1248 74.0982 15.1746C74.0982 13.2243 72.5159 11.6421 70.5657 11.6421C68.6155 11.6421 67.0332 13.2243 67.0332 15.1746C67.0332 17.1125 68.6277 18.707 70.5657 18.707ZM70.5657 13.4819C71.4979 13.4819 72.2583 14.2424 72.2583 15.1746C72.2583 16.1067 71.4979 16.8672 70.5657 16.8672C69.6335 16.8672 68.8731 16.1067 68.8731 15.1746C68.8731 14.2424 69.6335 13.4819 70.5657 13.4819Z" fill="#00AFC1"/>
<path d="M60.6552 18.707C62.6054 18.707 64.1876 17.1248 64.1876 15.1746C64.1876 13.2243 62.6054 11.6421 60.6552 11.6421C58.7049 11.6421 57.1227 13.2243 57.1227 15.1746C57.1227 17.1125 58.7172 18.707 60.6552 18.707ZM60.6552 13.4819C61.5873 13.4819 62.3478 14.2424 62.3478 15.1746C62.3478 16.1067 61.5873 16.8672 60.6552 16.8672C59.723 16.8672 58.9625 16.1067 58.9625 15.1746C58.9625 14.2424 59.723 13.4819 60.6552 13.4819Z" fill="#00AFC1"/>
<path d="M44.6609 15.8983H53.21C53.7129 15.8983 54.1299 15.4813 54.1299 14.9784C54.1299 14.4755 53.7129 14.0585 53.21 14.0585H44.6609C44.158 14.0585 43.741 14.4755 43.741 14.9784C43.741 15.4813 44.158 15.8983 44.6609 15.8983Z" fill="#00AFC1"/>
<path d="M26.4711 31.9785C25.9682 31.9785 25.5512 32.3955 25.5512 32.8984V34.7628C25.5512 35.2657 25.9682 35.6827 26.4711 35.6827C26.974 35.6827 27.391 35.2657 27.391 34.7628V32.8984C27.391 32.3955 26.9863 31.9785 26.4711 31.9785Z" fill="#00AFC1"/>
<path d="M30.6905 31.9785C30.1876 31.9785 29.7706 32.3955 29.7706 32.8984V34.7628C29.7706 35.2657 30.1876 35.6827 30.6905 35.6827C31.1934 35.6827 31.6104 35.2657 31.6104 34.7628V32.8984C31.6104 32.3955 31.2056 31.9785 30.6905 31.9785Z" fill="#00AFC1"/>
<path d="M34.9098 31.9785C34.4069 31.9785 33.9899 32.3955 33.9899 32.8984V34.7628C33.9899 35.2657 34.4069 35.6827 34.9098 35.6827C35.4127 35.6827 35.8297 35.2657 35.8297 34.7628V32.8984C35.8297 32.3955 35.425 31.9785 34.9098 31.9785Z" fill="#00AFC1"/>
<path d="M39.1291 31.9785C38.6263 31.9785 38.2092 32.3955 38.2092 32.8984V34.7628C38.2092 35.2657 38.6263 35.6827 39.1291 35.6827C39.632 35.6827 40.0491 35.2657 40.0491 34.7628V32.8984C40.0491 32.3955 39.6443 31.9785 39.1291 31.9785Z" fill="#00AFC1"/>
<path d="M70.5657 33.3398C68.6155 33.3398 67.0332 34.9221 67.0332 36.8723C67.0332 38.8225 68.6155 40.4048 70.5657 40.4048C72.5159 40.4048 74.0982 38.8225 74.0982 36.8723C74.0982 34.9221 72.5159 33.3398 70.5657 33.3398ZM70.5657 38.5527C69.6335 38.5527 68.8731 37.7922 68.8731 36.86C68.8731 35.9279 69.6335 35.1674 70.5657 35.1674C71.4979 35.1674 72.2583 35.9279 72.2583 36.86C72.2583 37.7922 71.4979 38.5527 70.5657 38.5527Z" fill="#00AFC1"/>
<path d="M60.6552 33.3398C58.7049 33.3398 57.1227 34.9221 57.1227 36.8723C57.1227 38.8225 58.7049 40.4048 60.6552 40.4048C62.6054 40.4048 64.1876 38.8225 64.1876 36.8723C64.1876 34.9221 62.6054 33.3398 60.6552 33.3398ZM60.6552 38.5527C59.723 38.5527 58.9625 37.7922 58.9625 36.86C58.9625 35.9279 59.723 35.1674 60.6552 35.1674C61.5873 35.1674 62.3478 35.9279 62.3478 36.86C62.3478 37.7922 61.5873 38.5527 60.6552 38.5527Z" fill="#00AFC1"/>
<path d="M53.2222 35.7439H44.6609C44.158 35.7439 43.741 36.1609 43.741 36.6638C43.741 37.1667 44.158 37.5837 44.6609 37.5837H53.21C53.7129 37.5837 54.1299 37.1667 54.1299 36.6638C54.1299 36.1609 53.7251 35.7439 53.2222 35.7439Z" fill="#00AFC1"/>
<path d="M70.5657 54.9272C68.6155 54.9272 67.0332 56.5095 67.0332 58.4597C67.0332 60.41 68.6155 61.9922 70.5657 61.9922C72.5159 61.9922 74.0982 60.41 74.0982 58.4597C74.0982 56.5095 72.5159 54.9272 70.5657 54.9272ZM70.5657 60.1524C69.6335 60.1524 68.8731 59.3919 68.8731 58.4597C68.8731 57.5275 69.6335 56.7671 70.5657 56.7671C71.4979 56.7671 72.2583 57.5275 72.2583 58.4597C72.2583 59.3919 71.4979 60.1524 70.5657 60.1524Z" fill="#00AFC1"/>
<path d="M60.6552 54.9272C58.7049 54.9272 57.1227 56.5095 57.1227 58.4597C57.1227 60.41 58.7049 61.9922 60.6552 61.9922C62.6054 61.9922 64.1876 60.41 64.1876 58.4597C64.1876 56.5095 62.6054 54.9272 60.6552 54.9272ZM60.6552 60.1524C59.723 60.1524 58.9625 59.3919 58.9625 58.4597C58.9625 57.5275 59.723 56.7671 60.6552 56.7671C61.5873 56.7671 62.3478 57.5275 62.3478 58.4597C62.3478 59.3919 61.5873 60.1524 60.6552 60.1524Z" fill="#00AFC1"/>
<path d="M39.3499 58.7294C38.3932 58.7294 37.6082 57.9444 37.6082 56.9877C37.6082 56.0309 38.3932 55.246 39.3499 55.246C40.1595 55.246 40.8709 55.8224 41.0549 56.6074C41.1652 57.1103 41.6681 57.417 42.1588 57.3066C42.6494 57.1962 42.9683 56.7056 42.8579 56.2027C42.4899 54.5591 41.0549 53.4061 39.3622 53.4061C37.3875 53.4061 35.7807 55.0129 35.7807 56.9877C35.7807 58.9624 37.3875 60.5692 39.3622 60.5692C40.3189 60.5692 41.1039 61.3542 41.1039 62.3109C41.1039 63.2676 40.3189 64.0526 39.3622 64.0526C38.5036 64.0526 37.7677 63.4148 37.645 62.5807C37.5714 62.0779 37.0931 61.7344 36.6025 61.808C36.0996 61.8816 35.7561 62.36 35.8297 62.8506C36.0996 64.58 37.6205 65.8924 39.3745 65.8924C41.3492 65.8924 42.956 64.2857 42.956 62.3109C42.9437 60.3362 41.337 58.7294 39.3499 58.7294Z" fill="#00AFC1"/>
<path d="M23.0981 53.7374C22.6198 53.5534 22.0923 53.7865 21.9084 54.2648L18.7438 62.4337L15.5793 54.2648C15.3954 53.7865 14.8679 53.5534 14.3896 53.7374C13.9112 53.9214 13.6782 54.4488 13.8622 54.9272L17.8853 65.3038C18.0202 65.6595 18.3636 65.8926 18.7438 65.8926C19.1241 65.8926 19.4675 65.6595 19.6024 65.3038L23.6255 54.9272C23.8095 54.4611 23.5765 53.9214 23.0981 53.7374Z" fill="#00AFC1"/>
<path d="M30.2489 53.4061H27.1212C26.6183 53.4061 26.2013 53.8232 26.2013 54.326V54.6082V59.2323V64.9848C26.2013 65.4877 26.6183 65.9047 27.1212 65.9047C27.6241 65.9047 28.0411 65.4877 28.0411 64.9848V60.1522H30.2489C32.1133 60.1522 33.6219 58.6435 33.6219 56.7792C33.6219 54.9148 32.1133 53.4061 30.2489 53.4061ZM30.2489 58.3001H28.0411V55.2337H30.2489C31.0952 55.2337 31.7821 55.9206 31.7821 56.7669C31.7821 57.6132 31.0952 58.3001 30.2489 58.3001Z" fill="#00AFC1"/>
<path d="M25.7352 43.6306C20.6205 41.9625 17.6277 43.8023 16.0209 45.6299C15.6897 46.0101 15.7265 46.5989 16.1068 46.93C16.2785 47.0895 16.4993 47.1631 16.7078 47.1631C16.9653 47.1631 17.2229 47.0527 17.3946 46.8442C19.1977 44.7836 21.8102 44.2929 25.1587 45.3846C25.6371 45.544 26.1645 45.2742 26.3117 44.7958C26.4834 44.3175 26.2258 43.79 25.7352 43.6306Z" fill="#00AFC1"/>
<path d="M14.6594 50.6218C14.733 50.6341 14.7943 50.6464 14.8679 50.6464C15.285 50.6464 15.6652 50.3643 15.7633 49.935C15.7756 49.9104 15.8492 49.5793 16.0332 49.1132C16.2171 48.6471 15.9964 48.1074 15.518 47.9234C15.0519 47.7272 14.5122 47.9602 14.3282 48.4386C14.0829 49.0641 13.9848 49.4811 13.9725 49.5302C13.8622 50.0208 14.1688 50.5114 14.6594 50.6218Z" fill="#00AFC1"/>
</svg>
