<svg width="256" height="259" viewBox="0 0 256 259" fill="none" xmlns="http://www.w3.org/2000/svg">
<path d="M71.9045 215.773L75.7951 217.719C92.0086 227.446 110.166 231.986 128.324 231.986C185.392 231.986 232.084 185.294 232.084 128.226C232.084 100.989 221.059 74.4008 201.605 54.9455C182.15 35.4902 156.209 24.4662 128.324 24.4662C71.2565 24.4662 24.5636 71.1581 25.2126 128.875C25.2126 148.329 31.049 167.137 40.7762 183.348L43.37 187.24L32.9948 225.501L71.9045 215.773Z" fill="#00E676"/>
<path d="M212.629 44.5695C190.58 21.8724 160.101 9.55054 128.972 9.55054C62.8262 9.55054 9.64891 63.3758 10.2969 128.874C10.2969 149.626 16.1334 169.73 25.8615 187.888L9 249.495L71.9045 233.283C89.4139 243.011 108.868 247.551 128.324 247.551C193.823 247.551 247 193.724 247 128.227C247 96.4499 234.678 66.6185 212.63 44.5695H212.629ZM128.972 227.447C111.463 227.447 93.9535 222.909 79.0378 213.829L75.1472 211.884L37.5345 221.611L47.2616 184.647L44.6678 180.755C16.1334 134.712 29.7522 73.7519 76.4441 45.2174C123.136 16.6839 183.447 30.3027 211.981 76.9946C240.515 123.686 226.896 183.997 180.205 212.532C165.288 222.259 147.131 227.446 128.972 227.446V227.447ZM186.04 155.465L178.907 152.222C178.907 152.222 168.532 147.682 162.046 144.44C161.398 144.44 160.75 143.791 160.101 143.791C158.155 143.791 156.858 144.44 155.561 145.088C155.561 145.088 154.913 145.736 145.834 156.113C145.185 157.409 143.888 158.058 142.591 158.058H141.942C141.294 158.058 139.997 157.409 139.349 156.761L136.106 155.465C128.972 152.222 122.488 148.33 117.299 143.143C116.003 141.846 114.057 140.549 112.76 139.252C108.22 134.712 103.681 129.524 100.439 123.687L99.79 122.391C99.142 121.742 99.142 121.094 98.4931 119.797C98.4931 118.5 98.4931 117.203 99.142 116.554C99.142 116.554 101.736 113.311 103.681 111.366C104.979 110.069 105.626 108.124 106.923 106.827C108.22 104.881 108.869 102.287 108.22 100.341C107.572 97.0988 99.79 79.5893 97.8451 75.6986C96.5473 73.7528 95.2513 73.1048 93.3055 72.4559H86.1722C84.8743 72.4559 83.5784 73.1048 82.2805 73.1048L81.6316 73.7528C80.3347 74.4017 79.0378 75.6986 77.7409 76.3466C76.4441 77.6444 75.7951 78.9404 74.4983 80.2382C69.9587 86.0747 67.3649 93.2081 67.3649 100.341C67.3649 105.529 68.6618 110.718 70.6076 115.257L71.2565 117.203C77.093 129.524 84.8743 140.549 95.2513 150.276L97.8451 152.87C99.79 154.816 101.736 156.113 103.033 158.057C116.651 169.731 132.215 178.162 149.725 182.701C151.67 183.349 154.264 183.349 156.21 183.998H162.694C165.937 183.998 169.828 182.701 172.423 181.404C174.367 180.107 175.664 180.107 176.961 178.811L178.259 177.513C179.556 176.216 180.853 175.568 182.15 174.271C183.447 172.974 184.744 171.677 185.392 170.379C186.689 167.786 187.337 164.543 187.986 161.301V156.761C187.986 156.761 187.337 156.113 186.04 155.465V155.465Z" fill="white"/>
</svg>
